<?xml version="1.0" encoding="UTF-8"?> <!-- Generator: Adobe Illustrator 22.0.0, SVG Export Plug-In . SVG Version: 6.00 Build 0) --> <svg xmlns="http://www.w3.org/2000/svg" xmlns:xlink="http://www.w3.org/1999/xlink" id="Layer_1" x="0px" y="0px" viewBox="0 0 580.2 60.2" style="enable-background:new 0 0 580.2 60.2;" xml:space="preserve"> <path d="M514.6,28.4v11.1h-45.7V28.4H514.6z M370.5,28.4v11.1H66.4V28.4H370.5z M580.4,21.5c-3.5-5.5-9-9-15.9-9 c-8.3,0-16.6,5.5-16.6,17.3c0,9.7,6.2,17.3,16.6,17.3c6.2,0,12.5-2.8,15.9-9.7v18c-6.2,2.8-11.1,3.5-15.2,3.5 c-9.7,0-16.6-2.1-22.2-8.3c-4.8-4.8-8.3-11.8-8.3-20.8c0-7.6,2.1-15.2,9.7-22.2c6.2-5.5,13.2-6.9,20.8-6.9c4.2,0,9,0.7,15.2,4.2 V21.5z M403.8,29.8c0,9.7,6.2,17.3,15.2,17.3c7.6,0,15.9-5.5,15.9-17.3s-8.3-17.3-15.9-17.3C410,12.5,403.8,20.1,403.8,29.8 M434.2,2.1h12.5v54.7h-12.5v-5.5c-6.2,6.2-13.2,7.6-16.6,7.6c-17.3,0-27-13.9-27-29.1c0-18,12.5-29.1,27-29.1 c4.1,0,11.1,1.4,16.6,7.6V2.1z M16.5,2.1L30.4,34L44.9,2.1h13.9L30.4,61L2,2.1H16.5z"></path> </svg> 