<svg xmlns="http://www.w3.org/2000/svg" xmlns:xlink="http://www.w3.org/1999/xlink"><defs><style>.cls-1{fill:#fff;}.cls-1,.cls-2{stroke:#000;stroke-miterlimit:10;stroke-width:2px;}.cls-2{fill:none;}</style><style>.cls-1{fill:#fff;stroke:#000;stroke-miterlimit:10;stroke-width:2px;}</style></defs><symbol id="icon-enter" viewBox="0 0 20 11"><title>&#x41C;&#x43E;&#x43D;&#x442;&#x430;&#x436;&#x43D;&#x430;&#x44F; &#x43E;&#x431;&#x43B;&#x430;&#x441;&#x442;&#x44C; 1</title><polyline class="cls-1" points="2 7.02 19 7.02 19 0.65"/><polyline class="cls-2" points="4.83 4.19 2 7.02 4.83 9.85"/></symbol><symbol id="icon-fb" viewBox="0 0 28 28"><path d="M15.1 23v-8.21h2.773l.415-3.2H15.1V9.547c0-.927.26-1.558 1.596-1.558l1.704-.002V5.126A22.787 22.787 0 0 0 15.917 5C13.46 5 11.78 6.492 11.78 9.23v2.36H9v3.2h2.78V23h3.32z" fill-rule="evenodd"/></symbol><symbol id="icon-search" viewBox="0 0 22 22"><title>&#x41C;&#x43E;&#x43D;&#x442;&#x430;&#x436;&#x43D;&#x430;&#x44F; &#x43E;&#x431;&#x43B;&#x430;&#x441;&#x442;&#x44C; 1</title><circle class="cls-1" cx="8.5" cy="8.5" r="7.5"/><line class="cls-1" x1="13.88" y1="13.88" x2="21.17" y2="21.17"/></symbol><symbol id="icon-twitter" viewBox="0 0 28 28"><path d="M23 8.73a7.38 7.38 0 0 1-2.12.583 3.706 3.706 0 0 0 1.623-2.043 7.397 7.397 0 0 1-2.346.896 3.693 3.693 0 0 0-6.293 3.368 10.485 10.485 0 0 1-7.61-3.858c-.32.545-.5 1.18-.5 1.856 0 1.28.65 2.41 1.642 3.073a3.683 3.683 0 0 1-1.673-.462v.047c0 1.788 1.273 3.28 2.962 3.62a3.718 3.718 0 0 1-1.667.063 3.697 3.697 0 0 0 3.45 2.564A7.41 7.41 0 0 1 5 19.967a10.453 10.453 0 0 0 5.66 1.658c6.794 0 10.508-5.626 10.508-10.505 0-.16-.003-.32-.01-.478A7.507 7.507 0 0 0 23 8.732z" fill-rule="evenodd"/></symbol><symbol id="icon-vk" viewBox="0 0 28 28"><path d="M14.883 19.396s.325-.036.49-.218c.154-.167.15-.48.15-.48s-.023-1.468.648-1.684c.66-.213 1.51 1.418 2.408 2.046.68.474 1.197.37 1.197.37l2.404-.034s1.256-.08.66-1.084c-.05-.082-.348-.743-1.788-2.102-1.507-1.423-1.305-1.192.51-3.653 1.106-1.498 1.548-2.412 1.41-2.804-.132-.373-.945-.275-.945-.275l-2.706.017s-.2-.028-.35.063c-.144.088-.238.295-.238.295s-.428 1.16-1 2.146c-1.204 2.08-1.686 2.19-1.883 2.06-.46-.3-.345-1.21-.345-1.855 0-2.017.3-2.857-.586-3.075-.295-.072-.512-.12-1.264-.128-.966-.01-1.783.003-2.246.234-.308.153-.546.495-.4.514.178.025.583.11.798.41.277.382.268 1.244.268 1.244s.16 2.373-.373 2.668c-.365.202-.865-.21-1.94-2.098-.55-.967-.966-2.036-.966-2.036s-.08-.2-.223-.306c-.173-.13-.416-.17-.416-.17l-2.57.016s-.388.01-.53.182c-.125.152-.01.466-.01.466s2.014 4.79 4.294 7.202c2.09 2.214 4.465 2.068 4.465 2.068h1.076z" fill-rule="evenodd"/></symbol></svg>